<?xml version="1.0" encoding="utf-8"?>
<!-- Generator: Adobe Illustrator 18.1.1, SVG Export Plug-In . SVG Version: 6.00 Build 0)  -->
<svg version="1.1" xmlns="http://www.w3.org/2000/svg" xmlns:xlink="http://www.w3.org/1999/xlink" x="0px" y="0px"
	 viewBox="0 0 34 34" enable-background="new 0 0 34 34" xml:space="preserve">
<g id="Layer_1" display="none">
</g>
<g id="Layer_7" display="none">
</g>
<g id="Layer_6" display="none">
</g>
<g id="Layer_6_copy" display="none">
</g>
<g id="Layer_3" display="none">
</g>
<g id="Layer_3_copy" display="none">
</g>
<g id="Layer_5" display="none">
</g>
<g id="Layer_4" display="none">
</g>
<g id="Layer_2" display="none">
</g>
<g id="Layer_10" display="none">
</g>
<g id="Layer_11">
	<path d="M24.19,11.37c0.03-0.26,0.04-0.5,0.04-0.74c0-4.01-3.25-7.42-7.26-7.42c-4.01,0-7.27,3.48-7.27,7.5
		c0,0.23,0.01,0.46,0.04,0.69c-2.45,2.06-4.01,5.15-4.01,8.6c0,6.21,5.04,11.25,11.25,11.25c6.21,0,11.25-5.04,11.25-11.25
		C28.23,16.54,26.66,13.43,24.19,11.37z M11.55,10.15c0.23-2.8,2.57-5.12,5.42-5.12c2.81,0,5.12,2.34,5.41,5.1
		c-1.6-0.88-3.45-1.38-5.4-1.38C15.01,8.75,13.16,9.26,11.55,10.15z"/>
	<g>
		<path fill="#FFFFFF" d="M12.583,23.538h1.327v1.623l1.39-1.623h1.765l-1.567,1.621l1.638,2.674h-1.634l-0.906-1.767l-0.686,0.719
			v1.048h-1.327V23.538z"/>
		<path fill="#FFFFFF" d="M19.529,26.277v-0.894h2.051v1.831c-0.393,0.268-0.739,0.45-1.041,0.546
			c-0.302,0.098-0.66,0.146-1.074,0.146c-0.51,0-0.925-0.087-1.246-0.261c-0.322-0.174-0.571-0.433-0.748-0.776
			s-0.265-0.738-0.265-1.184c0-0.469,0.097-0.876,0.29-1.224c0.193-0.346,0.477-0.609,0.85-0.789
			c0.291-0.139,0.683-0.208,1.175-0.208c0.475,0,0.83,0.043,1.065,0.129s0.431,0.22,0.586,0.399c0.155,0.182,0.271,0.41,0.35,0.688
			l-1.28,0.229c-0.053-0.162-0.142-0.286-0.268-0.372s-0.287-0.129-0.482-0.129c-0.291,0-0.522,0.101-0.695,0.304
			c-0.173,0.201-0.26,0.521-0.26,0.959c0,0.465,0.088,0.797,0.263,0.996s0.418,0.299,0.73,0.299c0.148,0,0.29-0.021,0.425-0.064
			s0.289-0.116,0.463-0.22v-0.404H19.529z"/>
	</g>
	<g>
		<path fill="#FFFFFF" d="M12.155,15.506h3.366v-3.384h2.84v3.384h3.383v2.839H18.36v3.366h-2.84v-3.366h-3.366V15.506z"/>
	</g>
</g>
</svg>
