<?xml version="1.0" encoding="utf-8"?>
<!-- Generator: Adobe Illustrator 18.1.1, SVG Export Plug-In . SVG Version: 6.00 Build 0)  -->
<svg version="1.1" xmlns="http://www.w3.org/2000/svg" xmlns:xlink="http://www.w3.org/1999/xlink" x="0px" y="0px"
	 viewBox="0 0 34 34" enable-background="new 0 0 34 34" xml:space="preserve">
<g id="Layer_1" display="none">
</g>
<g id="Layer_7" display="none">
</g>
<g id="Layer_6" display="none">
</g>
<g id="Layer_6_copy" display="none">
</g>
<g id="Layer_3" display="none">
</g>
<g id="Layer_3_copy" display="none">
</g>
<g id="Layer_5" display="none">
</g>
<g id="Layer_4" display="none">
</g>
<g id="Layer_2" display="none">
</g>
<g id="Layer_10" display="none">
</g>
<g id="Layer_11">
	<path d="M11.834,15.86H6.251c-2.2,0-4-1.8-4-4V5.32c0-2.2,1.8-4,4-4h5.583c2.2,0,4,1.8,4,4v6.539
		C15.834,14.06,14.034,15.86,11.834,15.86z"/>
	<path d="M27.662,15.86h-5.583c-2.2,0-4-1.8-4-4V5.32c0-2.2,1.8-4,4-4h5.583c2.2,0,4,1.8,4,4v6.539
		C31.662,14.06,29.862,15.86,27.662,15.86z"/>
	<path d="M11.471,32.509H5.888c-2.2,0-4-1.8-4-4V21.97c0-2.2,1.8-4,4-4h5.583c2.2,0,4,1.8,4,4v6.539
		C15.471,30.709,13.671,32.509,11.471,32.509z"/>
	<path d="M27.662,32.509h-5.583c-2.2,0-4-1.8-4-4V21.97c0-2.2,1.8-4,4-4h5.583c2.2,0,4,1.8,4,4v6.539
		C31.662,30.709,29.862,32.509,27.662,32.509z"/>
	<g>
		<path fill="#FFFFFF" d="M4.62,7.288h3.105V4.167h2.62v3.122h3.121v2.619h-3.121v3.106h-2.62V9.908H4.62V7.288z"/>
	</g>
	<rect x="20.603" y="7.358" fill="#FFFFFF" width="8.533" height="2.464"/>
	<g>
		<circle fill="#FFFFFF" cx="24.658" cy="28.24" r="1.565"/>
		<rect x="20.603" y="23.91" fill="#FFFFFF" width="8.533" height="2.608"/>
		<circle fill="#FFFFFF" cx="24.658" cy="22.24" r="1.565"/>
	</g>
	<g>
		<path fill="#FFFFFF" d="M4.631,27.442l2.196-2.196L4.62,23.038l1.853-1.853l2.208,2.208l2.207-2.207l1.852,1.852l-2.207,2.207
			l2.196,2.196l-1.853,1.853l-2.196-2.196l-2.196,2.196L4.631,27.442z"/>
	</g>
</g>
</svg>
