<?xml version="1.0" encoding="utf-8"?>
<!-- Generator: Adobe Illustrator 18.1.1, SVG Export Plug-In . SVG Version: 6.00 Build 0)  -->
<svg version="1.1" xmlns="http://www.w3.org/2000/svg" xmlns:xlink="http://www.w3.org/1999/xlink" x="0px" y="0px"
	 viewBox="0 0 34 34" enable-background="new 0 0 34 34" xml:space="preserve">
<g id="Layer_1" display="none">
</g>
<g id="Layer_7" display="none">
</g>
<g id="Layer_6" display="none">
</g>
<g id="Layer_6_copy" display="none">
</g>
<g id="Layer_3" display="none">
</g>
<g id="Layer_3_copy" display="none">
</g>
<g id="Layer_5" display="none">
</g>
<g id="Layer_4" display="none">
</g>
<g id="Layer_2">
</g>
<g id="Layer_10" display="none">
</g>
<g id="Layer_11">
	<path d="M28.669,18.975V28.7c0,0.351-0.128,0.655-0.385,0.912c-0.257,0.257-0.561,0.385-0.912,0.385h-7.78v-7.78h-5.186v7.78h-7.78
		c-0.351,0-0.655-0.128-0.912-0.385S5.331,29.051,5.331,28.7v-9.725c0-0.014,0.003-0.034,0.01-0.061
		c0.007-0.027,0.01-0.047,0.01-0.061L17,9.251l11.649,9.603C28.663,18.881,28.669,18.921,28.669,18.975L28.669,18.975z
		 M33.187,17.577l-1.256,1.499c-0.108,0.122-0.25,0.196-0.425,0.223h-0.061c-0.176,0-0.317-0.047-0.425-0.142L17,7.468L2.981,19.158
		c-0.162,0.108-0.324,0.155-0.486,0.142c-0.176-0.027-0.317-0.101-0.425-0.223l-1.256-1.499c-0.108-0.135-0.155-0.294-0.142-0.476
		c0.014-0.182,0.088-0.328,0.223-0.436L15.46,4.53c0.432-0.351,0.945-0.527,1.54-0.527c0.594,0,1.108,0.176,1.54,0.527l4.943,4.133
		V4.713c0-0.189,0.061-0.344,0.182-0.466c0.122-0.122,0.277-0.182,0.466-0.182h3.89c0.189,0,0.344,0.061,0.466,0.182
		c0.122,0.122,0.182,0.277,0.182,0.466v8.266l4.437,3.687c0.135,0.108,0.209,0.253,0.223,0.436
		C33.343,17.284,33.295,17.442,33.187,17.577L33.187,17.577z"/>
</g>
</svg>
