<?xml version="1.0" encoding="utf-8"?>
<!-- Generator: Adobe Illustrator 18.1.1, SVG Export Plug-In . SVG Version: 6.00 Build 0)  -->
<svg version="1.1" xmlns="http://www.w3.org/2000/svg" xmlns:xlink="http://www.w3.org/1999/xlink" x="0px" y="0px"
	 viewBox="0 0 34 34.002" enable-background="new 0 0 34 34.002" xml:space="preserve">
<g id="Layer_1" display="none">
</g>
<g id="Layer_7" display="none">
</g>
<g id="Layer_6" display="none">
</g>
<g id="Layer_6_copy" display="none">
</g>
<g id="Layer_3" display="none">
</g>
<g id="Layer_3_copy" display="none">
</g>
<g id="Layer_5" display="none">
</g>
<g id="Layer_4" display="none">
</g>
<g id="Layer_2">
</g>
<g id="Layer_10" display="none">
</g>
<g id="Layer_11">
	<g>
		<path d="M9.727,2.455c0,0.804-0.651,1.455-1.455,1.455H5.364c-0.804,0-1.455,0.651-1.455,1.455v2.909
			c0,0.804-0.651,1.455-1.455,1.455C1.651,9.728,1,9.077,1,8.274V5.364c0-2.411,1.953-4.364,4.364-4.364h2.909
			C9.076,1.001,9.727,1.652,9.727,2.455z M3.909,14.092v5.818c0,0.804-0.651,1.455-1.455,1.455C1.651,21.364,1,20.714,1,19.91
			v-5.818c0-0.804,0.651-1.455,1.455-1.455C3.258,12.637,3.909,13.288,3.909,14.092z M9.727,31.546c0,0.804-0.651,1.455-1.455,1.455
			H5.364C2.953,33.001,1,31.048,1,28.637v-2.909c0-0.804,0.651-1.455,1.455-1.455c0.804,0,1.455,0.651,1.455,1.455v2.909
			c0,0.804,0.651,1.455,1.455,1.455h2.909C9.076,30.092,9.727,30.743,9.727,31.546z M21.364,31.546c0,0.804-0.651,1.455-1.455,1.455
			h-5.818c-0.804,0-1.455-0.651-1.455-1.455s0.651-1.455,1.455-1.455h5.818C20.713,30.092,21.364,30.743,21.364,31.546z M33,25.728
			v2.909c0,2.411-1.953,4.364-4.364,4.364h-2.909c-0.804,0-1.455-0.651-1.455-1.455s0.651-1.455,1.455-1.455h2.909
			c0.804,0,1.455-0.651,1.455-1.455v-2.909c0-0.804,0.651-1.455,1.455-1.455S33,24.924,33,25.728z M33,14.092v5.818
			c0,0.804-0.651,1.455-1.455,1.455s-1.455-0.651-1.455-1.455v-5.818c0-0.804,0.651-1.455,1.455-1.455S33,13.288,33,14.092z
			 M33,5.364v2.909c0,0.804-0.651,1.455-1.455,1.455s-1.455-0.651-1.455-1.455V5.364c0-0.804-0.651-1.455-1.455-1.455h-2.909
			c-0.804,0-1.455-0.651-1.455-1.455c0-0.804,0.651-1.455,1.455-1.455h2.909C31.047,1.001,33,2.954,33,5.364z M21.364,2.455
			c0,0.804-0.651,1.455-1.455,1.455h-5.818c-0.804,0-1.455-0.651-1.455-1.455c0-0.804,0.651-1.455,1.455-1.455h5.818
			C20.713,1.001,21.364,1.652,21.364,2.455z M22.818,15.546h-4.364v-4.364c0-0.803-0.651-1.455-1.455-1.455
			s-1.455,0.651-1.455,1.455v4.364h-4.364c-0.803,0-1.455,0.651-1.455,1.455s0.651,1.455,1.455,1.455h4.364v4.364
			c0,0.803,0.651,1.455,1.455,1.455s1.455-0.651,1.455-1.455v-4.364h4.364c0.803,0,1.455-0.651,1.455-1.455
			S23.621,15.546,22.818,15.546z"/>
	</g>
</g>
</svg>
