<?xml version="1.0" encoding="utf-8"?>
<!-- Generator: Adobe Illustrator 18.1.1, SVG Export Plug-In . SVG Version: 6.00 Build 0)  -->
<svg version="1.1" xmlns="http://www.w3.org/2000/svg" xmlns:xlink="http://www.w3.org/1999/xlink" x="0px" y="0px"
	 viewBox="0 0 34 34" enable-background="new 0 0 34 34" xml:space="preserve">
<g id="Layer_1" display="none">
	<g display="inline">
		<polygon points="29.728,22.687 18.415,34 33.875,34 33.875,26.833 		"/>
		<polygon points="23.364,16.323 5.687,34 15.586,34 28.314,21.272 		"/>
		<polygon points="17,9.958 -0.125,27.083 -0.125,34 2.858,34 21.95,14.908 		"/>
	</g>
</g>
<g id="Layer_7" display="none">
	<g display="inline">
		<polygon points="-0.125,16 15.875,16 -0.125,0 		"/>
		<polygon points="-0.125,18 -0.125,25 24.875,25 17.875,18 		"/>
		<polygon points="26.875,27 -0.125,27 -0.125,34 33.875,34 		"/>
	</g>
</g>
<g id="Layer_6" display="none">
	<g display="inline">
		<polygon points="33.875,18 17.875,18 33.875,34 		"/>
		<polygon points="33.875,16 33.875,9 8.875,9 15.875,16 		"/>
		<polygon points="6.875,7 33.875,7 33.875,0 -0.125,0 		"/>
	</g>
</g>
<g id="Layer_6_copy" display="none">
	<g display="inline">
		<polygon points="33.875,18 17.875,18 33.875,34 		"/>
		<polygon points="33.875,16 33.875,9 8.875,9 15.875,16 		"/>
		<polygon points="6.875,7 33.875,7 33.875,0 -0.125,0 		"/>
	</g>
</g>
<g id="Layer_3" display="none">
	<polygon display="inline" points="29.875,25 29.875,29 10.875,29 10.875,30 5.875,30 5.875,29 3.875,29 3.875,25 5.875,25 
		5.875,24 10.875,24 10.875,25 	"/>
	<g display="inline">
		<path d="M-0.125,0v34h34V0H-0.125z M30.875,31h-28V3h28V31z"/>
	</g>
	<polygon display="inline" points="29.875,16 29.875,20 27.875,20 27.875,21 22.875,21 22.875,20 3.875,20 3.875,16 22.875,16 
		22.875,15 27.875,15 27.875,16 	"/>
	<polygon display="inline" points="29.875,7 29.875,11 10.875,11 10.875,12 5.875,12 5.875,11 3.875,11 3.875,7 5.875,7 5.875,6 
		10.875,6 10.875,7 	"/>
</g>
<g id="Layer_3_copy" display="none">
	<rect x="3.875" y="7" display="inline" width="26" height="4"/>
	<rect x="3.875" y="16" display="inline" width="26" height="4"/>
	<rect x="3.875" y="25" display="inline" width="26" height="4"/>
</g>
<g id="Layer_5" display="none">
	<path display="inline" d="M33.798,17c0,9.283-7.542,16.771-16.772,16.771c-9.23,0-16.824-7.488-16.824-16.771
		c0-9.281,7.542-16.771,16.771-16.771C26.203,0.228,33.798,7.772,33.798,17z M21.035,8.932h-2.691
		c-2.9,0.106-3.586,1.74-3.586,3.744v1.74h-1.793v3.059h1.793v8.492h3.586v-8.492h2.374l0.316-3.059h-2.691v-1.74
		c0-0.475,0.211-0.844,0.844-0.844h1.794C21.035,11.832,21.035,8.932,21.035,8.932z"/>
</g>
<g id="Layer_4" display="none">
	<path display="inline" d="M16.974,0.228C7.743,0.228,0.202,7.717,0.202,17c0,9.281,7.594,16.771,16.824,16.771
		c9.229,0,16.772-7.49,16.772-16.771C33.798,7.769,26.203,0.228,16.974,0.228z M21.04,22.171c-0.912,0.449-2.889,0.785-4.066,0.28
		c-0.498-0.214-0.73-0.643-1.332-0.771c-0.343,1.373-0.673,3.376-1.402,4.487c-0.284,0.435-1.478,0.599-1.753,0
		c-0.574-1.248,1.31-6.933,1.543-8.133c0.17-0.875-0.966-2.357,0.07-4.067c0.369-0.61,1.849-1.73,2.664-0.771
		c2.406,1.466-2.541,6.601,0.911,7.502c4.137,1.081,5.429-7.867,2.314-9.605c-4.023-2.246-7.798,0.644-8.484,3.996
		c-0.37,1.811,0.818,2.353,0.981,3.576c-0.126,0.416-0.21,0.915-0.561,1.121c-1.994,0.58-3.043-4.099-2.314-6.239
		c0.646-1.898,2.222-3.653,3.996-4.417c0.795-0.211,1.59-0.421,2.384-0.632c3.918-0.469,6.932,1.18,8.203,4.207
		C25.737,16.374,23.324,21.046,21.04,22.171z"/>
</g>
<g id="Layer_2" display="none">
	<path display="inline" d="M34,17c0,9.35-7.598,17-17.001,17C7.596,34,0,26.404,0,17c0-9.403,7.65-17,17-17C26.35,0,34,7.597,34,17z
		 M25.924,12.06c-0.637,0.266-1.275,0.477-1.965,0.53c0.69-0.425,1.275-1.115,1.539-1.911c-0.69,0.371-1.381,0.689-2.178,0.85
		c-0.637-0.691-1.541-1.116-2.496-1.116c-1.912,0-3.453,1.54-3.453,3.453c0,0.266,0.053,0.532,0.107,0.797
		c-2.868-0.159-5.419-1.541-7.119-3.612c-0.319,0.53-0.478,1.115-0.478,1.753c0,1.222,0.585,2.231,1.541,2.869
		c-0.584,0-1.115-0.16-1.541-0.426V15.3c0,1.648,1.169,3.081,2.762,3.4c-0.266,0.053-0.584,0.106-0.903,0.106
		c-0.212,0-0.425,0-0.637-0.054c0.425,1.382,1.7,2.392,3.241,2.392c-1.17,0.902-2.657,1.486-4.304,1.486
		c-0.266,0-0.531,0-0.797-0.053c1.541,0.957,3.346,1.541,5.312,1.541c6.321,0,9.827-5.26,9.827-9.829c0-0.159,0-0.317,0-0.425
		C24.861,13.388,25.448,12.75,25.924,12.06z"/>
</g>
<g id="Layer_10">
	<path d="M10.469,0H23.24v3.093l-8.514,1.362l8.514,1.469v2.987H10.469V7.01l8.983-0.057c-2.76-0.418-6.223-1.071-8.983-1.49v-1.93
		l9.04-1.568l-9.04-0.057V0z"/>
	<path d="M10.469,10.398H23.24v5.329h-1.774V12.98H17.99v1.944h-1.816V12.98h-3.931v2.746h-1.774V10.398z"/>
	<path d="M10.469,18.267h12.779v1.859l-6.684,2.803h6.684v2.143H10.469v-1.788l7.088-2.795h-7.088V18.267z"/>
	<path d="M15.215,26.55h8.025v2.583h-7.947c-2.15,0-3.079,0-3.079,1.142c0,1.15,0.929,1.143,3.079,1.143h7.947V34h-8.025
		c-2.632,0-4.995-0.475-4.995-3.725C10.22,27.033,12.583,26.55,15.215,26.55z"/>
</g>
</svg>
