<?xml version="1.0" encoding="utf-8"?>
<!-- Generator: Adobe Illustrator 18.0.0, SVG Export Plug-In . SVG Version: 6.00 Build 0)  -->
<!DOCTYPE svg PUBLIC "-//W3C//DTD SVG 1.1//EN" "http://www.w3.org/Graphics/SVG/1.1/DTD/svg11.dtd">
<svg version="1.1" id="Layer_1" xmlns="http://www.w3.org/2000/svg" xmlns:xlink="http://www.w3.org/1999/xlink" x="0px" y="0px"
	 viewBox="0 0 612 792" enable-background="new 0 0 612 792" xml:space="preserve">
<g>
	<path d="M597.6,615.6L473.4,491.4c30.6-43.2,45-91.8,45-144c0-34.2-7.2-66.6-19.8-99c-12.6-30.6-30.6-59.4-54-81s-50.4-41.4-81-54
		s-64.8-19.8-99-19.8s-66.6,7.2-99,19.8c-32.4,12.6-59.4,32.4-82.8,54s-41.4,50.4-54,81S9,313.2,9,347.4s7.2,66.6,19.8,99
		c12.6,30.6,30.6,59.4,54,81c23.4,21.6,50.4,41.4,81,54c30.6,12.6,64.8,19.8,99,19.8c52.2,0,100.8-14.4,144-45L531,680.4
		c9,9,19.8,14.4,32.4,14.4c12.6,0,23.4-5.4,32.4-14.4s14.4-19.8,14.4-32.4C610.2,635.4,606.6,624.6,597.6,615.6z M378,462.6
		c-32.4,32.4-70.2,46.8-115.2,46.8s-82.8-16.2-115.2-46.8c-32.4-32.4-46.8-70.2-46.8-115.2s16.2-82.8,46.8-115.2
		c32.4-32.4,70.2-46.8,115.2-46.8s82.8,16.2,115.2,46.8c32.4,32.4,46.8,70.2,46.8,115.2S408.6,430.2,378,462.6z"/>
</g>
</svg>
