<?xml version="1.0" encoding="utf-8"?>
<!-- Generator: Adobe Illustrator 18.1.1, SVG Export Plug-In . SVG Version: 6.00 Build 0)  -->
<svg version="1.1" xmlns="http://www.w3.org/2000/svg" xmlns:xlink="http://www.w3.org/1999/xlink" x="0px" y="0px"
	 viewBox="0 0 34 34" enable-background="new 0 0 34 34" xml:space="preserve">
<g id="Layer_1" display="none">
</g>
<g id="Layer_7" display="none">
</g>
<g id="Layer_6" display="none">
</g>
<g id="Layer_6_copy" display="none">
</g>
<g id="Layer_3" display="none">
</g>
<g id="Layer_3_copy" display="none">
</g>
<g id="Layer_5" display="none">
</g>
<g id="Layer_4" display="none">
</g>
<g id="Layer_2" display="none">
</g>
<g id="Layer_10" display="none">
</g>
<g id="Layer_11">
	<path d="M31,19.973V14.22l-3.398-0.836l-0.076-1.631l1.568-2.552l-4.116-4.183l-2.662,1.753l-1.629-0.68L20,3h-6.096l-0.778,3.214
		l-1.689,0.557l-2.552-1.8L4.601,9.14l1.333,2.466l-0.842,1.953L2,14v6.107l3.092,0.903l0.994,1.739l-1.376,2.408l4.279,4.181
		l2.39-1.371l1.88,0.836l0.602,2.609c0,0,5.916-0.034,6.05,0s0.759-2.676,0.759-2.676l1.75-0.769l2.43,1.338l4.124-4.248
		l-1.62-2.341l0.247-1.639L31,19.973z M17.048,24.714c-4.008,0-7.258-3.25-7.258-7.258s3.249-7.258,7.258-7.258
		c4.008,0,7.258,3.25,7.258,7.258S21.057,24.714,17.048,24.714z"/>
</g>
</svg>
