<?xml version="1.0" encoding="utf-8"?>
<!-- Generator: Adobe Illustrator 18.1.1, SVG Export Plug-In . SVG Version: 6.00 Build 0)  -->
<svg version="1.1" xmlns="http://www.w3.org/2000/svg" xmlns:xlink="http://www.w3.org/1999/xlink" x="0px" y="0px"
	 viewBox="0 0 34 34" enable-background="new 0 0 34 34" xml:space="preserve">
<g id="Layer_1" display="none">
</g>
<g id="Layer_7" display="none">
</g>
<g id="Layer_6" display="none">
</g>
<g id="Layer_6_copy" display="none">
</g>
<g id="Layer_3" display="none">
</g>
<g id="Layer_3_copy" display="none">
</g>
<g id="Layer_5" display="none">
</g>
<g id="Layer_4" display="none">
</g>
<g id="Layer_2" display="none">
</g>
<g id="Layer_10" display="none">
</g>
<g id="Layer_11">
	<g>
		<g>
			<path d="M8.622,29.619l-3.448,0c-0.109-9.737-0.477-22.596,0-25.237l3.448,0V29.619z"/>
			<path d="M5.174,25.784l-2.4,0c-0.205-6.683-0.966-15.618,0-17.568h2.4V25.784z"/>
			<path d="M2.774,22.71l-1.56,0c-0.279-3.824-0.321-7.633,0-11.419l1.56,0V22.71z"/>
		</g>
		<g>
			<path d="M25.378,4.381l3.448,0c0.109,9.737,0.477,22.596,0,25.237l-3.448,0V4.381z"/>
			<path d="M28.826,8.216l2.4,0c0.205,6.683,0.966,15.618,0,17.568h-2.4V8.216z"/>
			<path d="M31.226,11.29l1.56,0c0.279,3.824,0.321,7.633,0,11.419l-1.56,0V11.29z"/>
		</g>
	</g>
	<rect x="8.622" y="15.493" width="16.756" height="3.015"/>
</g>
</svg>
