<?xml version="1.0" encoding="utf-8"?>
<!-- Generator: Adobe Illustrator 18.1.1, SVG Export Plug-In . SVG Version: 6.00 Build 0)  -->
<svg version="1.1" xmlns="http://www.w3.org/2000/svg" xmlns:xlink="http://www.w3.org/1999/xlink" x="0px" y="0px"
	 viewBox="0 0 34 34" enable-background="new 0 0 34 34" xml:space="preserve">
<g id="Layer_1" display="none">
</g>
<g id="Layer_7" display="none">
</g>
<g id="Layer_6" display="none">
</g>
<g id="Layer_6_copy" display="none">
</g>
<g id="Layer_3" display="none">
</g>
<g id="Layer_3_copy" display="none">
</g>
<g id="Layer_5" display="none">
</g>
<g id="Layer_4" display="none">
</g>
<g id="Layer_2" display="none">
</g>
<g id="Layer_10" display="none">
</g>
<g id="Layer_11">
	<path d="M9.299,6.011l0.751-0.15C9.796,5.907,9.553,5.965,9.311,6.034L9.299,6.011z"/>
	<path d="M11.32,5.618l0.277-0.058v0.012C11.505,5.572,11.413,5.595,11.32,5.618z"/>
	<path d="M22.871,5.757c-0.116-0.023-0.243-0.046-0.358-0.058V5.688L22.871,5.757z"/>
	<ellipse cx="17.025" cy="8.954" rx="1.819" ry="2.946"/>
	<path d="M9.299,6.011l0.751-0.15C9.796,5.907,9.553,5.965,9.311,6.034L9.299,6.011z"/>
	<path d="M11.32,5.618l0.277-0.058v0.012C11.505,5.572,11.413,5.595,11.32,5.618z"/>
	<path d="M22.871,5.757c-0.116-0.023-0.243-0.046-0.358-0.058V5.688L22.871,5.757z"/>
	<g>
		<rect x="3.013" y="4.629" transform="matrix(0.9474 -0.3199 0.3199 0.9474 -2.1119 1.502)" width="1.004" height="5.098"/>
		<rect x="2.171" y="5.578" transform="matrix(0.9474 -0.3199 0.3199 0.9474 -2.2623 1.2085)" width="0.753" height="3.824"/>
	</g>
	<g>
		<path d="M9.311,6.034l0.081,0.139c3.419,8.836,3.985,14.981-0.243,24.407l4.805,0.058l2.252-5.371
			c0.693-1.513,1.375-1.224,2.068,0.3l2.079,4.886l4.586-0.046c-3.789-9.541-3.904-15.628-0.45-24.326
			c1.236,0.254,2.53,0.601,3.904,1.005l-0.866,2.553l1.271,0.427L30.98,3.62l-1.271-0.427l-1.051,3.096
			C20.954,4.047,13.192,4.059,5.383,6.254L4.355,3.193L3.085,3.62l2.172,6.445l1.271-0.427L5.672,7.085
			C6.862,6.693,8.063,6.334,9.311,6.034L9.299,6.011 M18.447,12.583c-0.936,1.097-1.883,1.109-2.772,0.081l-4.054-7.057
			l-0.058,0.011c0.092-0.023-0.058-0.046,0.035-0.046l-0.03,0.035l0.408-0.046v0.012c3-0.531,6-0.612,11,0.127V5.688l-0.214,0.012
			L18.447,12.583z"/>
		<rect x="30.042" y="4.629" transform="matrix(-0.9474 -0.3199 0.3199 -0.9474 57.187 23.752)" width="1.004" height="5.098"/>
		<rect x="31.136" y="5.578" transform="matrix(-0.9474 -0.3199 0.3199 -0.9474 58.9734 24.6675)" width="0.753" height="3.824"/>
	</g>
</g>
</svg>
