<?xml version="1.0" encoding="utf-8"?>
<!-- Generator: Adobe Illustrator 18.1.1, SVG Export Plug-In . SVG Version: 6.00 Build 0)  -->
<svg version="1.1" xmlns="http://www.w3.org/2000/svg" xmlns:xlink="http://www.w3.org/1999/xlink" x="0px" y="0px"
	 viewBox="0 0 34 34" enable-background="new 0 0 34 34" xml:space="preserve">
<g id="Layer_1" display="none">
</g>
<g id="Layer_7" display="none">
</g>
<g id="Layer_6" display="none">
</g>
<g id="Layer_6_copy" display="none">
</g>
<g id="Layer_3" display="none">
</g>
<g id="Layer_3_copy" display="none">
</g>
<g id="Layer_5" display="none">
</g>
<g id="Layer_4" display="none">
</g>
<g id="Layer_2" display="none">
</g>
<g id="Layer_10" display="none">
</g>
<g id="Layer_11">
	<path d="M24.548,31.339H9.452c-2.2,0-4-1.8-4-4V8.396c0-2.2,1.8-4,4-4h15.096c2.2,0,4,1.8,4,4v18.943
		C28.548,29.539,26.748,31.339,24.548,31.339z"/>
	<path fill="#FFFFFF" d="M22.809,30.341H11.191c-2.2,0-4-1.8-4-4V9.555c0-2.2,1.8-4,4-4h11.618c2.2,0,4,1.8,4,4v16.787
		C26.809,28.541,25.009,30.341,22.809,30.341z"/>
	<path d="M22.74,2H19c0-0.92-1.08-1.68-2-1.68c-0.46,0-0.96,0.19-1.34,0.5C15.27,1.12,15,1.54,15,2h-3.74C10.16,2,9,3.06,9,4.11V7
		h16V4.11C25,3.06,23.84,2,22.74,2z M17.101,3.144c-0.47,0-0.851-0.471-0.851-1.052c0-0.581,0.381-1.052,0.851-1.052
		c0.47,0,0.851,0.471,0.851,1.052C17.952,2.672,17.571,3.144,17.101,3.144z"/>
	<rect x="9.265" y="9.278" fill="none" stroke="#000000" stroke-miterlimit="10" width="3.951" height="3.951"/>
	<rect x="9.265" y="16.476" fill="none" stroke="#000000" stroke-miterlimit="10" width="3.951" height="3.951"/>
	<rect x="9.265" y="23.476" fill="none" stroke="#000000" stroke-miterlimit="10" width="3.951" height="3.951"/>
	<rect x="15.265" y="10.218" width="9.735" height="1.925"/>
	<rect x="15.265" y="17.489" width="9.735" height="1.925"/>
	<rect x="15.265" y="24.489" width="9.735" height="1.925"/>
</g>
</svg>
